<svg width="20" height="20" viewBox="0 0 20 20" fill="none" xmlns="http://www.w3.org/2000/svg">
<rect width="20" height="20" rx="4" fill="#6C33E8"/>
<path d="M8.20628 11.7609L13.4978 6.25656C13.6622 6.08552 13.8714 6 14.1256 6C14.3797 6 14.5889 6.08552 14.7534 6.25656C14.9178 6.4276 15 6.64529 15 6.90962C15 7.17395 14.9178 7.39164 14.7534 7.56268L8.83408 13.7201C8.65471 13.9067 8.44544 14 8.20628 14C7.96711 14 7.75785 13.9067 7.57848 13.7201L5.24664 11.2945C5.08221 11.1234 5 10.9057 5 10.6414C5 10.3771 5.08221 10.1594 5.24664 9.98834C5.41106 9.8173 5.62033 9.73178 5.87444 9.73178C6.12855 9.73178 6.33782 9.8173 6.50224 9.98834L8.20628 11.7609Z" fill="white"/>
</svg>
