<svg width="40" height="40" viewBox="0 0 40 40" fill="none" xmlns="http://www.w3.org/2000/svg">
<mask id="mask0_130_342" style="mask-type:alpha" maskUnits="userSpaceOnUse" x="8" y="10" width="24" height="30">
<path d="M8.66669 40C8.66669 37.0067 9.86073 34.136 11.9861 32.0194C14.1116 29.9028 16.9942 28.7137 20 28.7137C23.0058 28.7137 25.8885 29.9028 28.0139 32.0194C30.1393 34.136 31.3334 37.0067 31.3334 40H8.66669ZM20 27.3029C15.3038 27.3029 11.5 23.515 11.5 18.8382C11.5 14.1614 15.3038 10.3735 20 10.3735C24.6963 10.3735 28.5 14.1614 28.5 18.8382C28.5 23.515 24.6963 27.3029 20 27.3029Z" fill="#979797"/>
</mask>
<g mask="url(#mask0_130_342)">
<ellipse cx="20" cy="19.917" rx="20" ry="19.917" fill="#6C33E8"/>
</g>
</svg>
