<svg width="42" height="42" viewBox="0 0 42 42" fill="none" xmlns="http://www.w3.org/2000/svg">
<mask id="mask0_130_342" style="mask-type:alpha" maskUnits="userSpaceOnUse" x="9" y="11" width="24" height="30">
<path d="M9.66669 41C9.66669 38.0067 10.8607 35.136 12.9861 33.0194C15.1116 30.9028 17.9942 29.7137 21 29.7137C24.0058 29.7137 26.8885 30.9028 29.0139 33.0194C31.1393 35.136 32.3334 38.0067 32.3334 41H9.66669ZM21 28.3029C16.3038 28.3029 12.5 24.515 12.5 19.8382C12.5 15.1614 16.3038 11.3735 21 11.3735C25.6963 11.3735 29.5 15.1614 29.5 19.8382C29.5 24.515 25.6963 28.3029 21 28.3029Z" fill="#979797"/>
</mask>
<g mask="url(#mask0_130_342)">
<ellipse cx="21" cy="20.917" rx="20" ry="19.917" fill="#6C33E8"/>
</g>
<ellipse cx="21" cy="20.917" rx="20" ry="19.917" stroke="black"/>
</svg>
