<svg width="18" height="19" viewBox="0 0 18 19" fill="none" xmlns="http://www.w3.org/2000/svg">
<path d="M9 10C8.71667 10 8.47933 9.904 8.288 9.712C8.096 9.52067 8 9.28333 8 9V1C8 0.716667 8.096 0.479 8.288 0.287C8.47933 0.0956666 8.71667 0 9 0C9.28333 0 9.521 0.0956666 9.713 0.287C9.90433 0.479 10 0.716667 10 1V9C10 9.28333 9.90433 9.52067 9.713 9.712C9.521 9.904 9.28333 10 9 10ZM9 19C7.75 19 6.57933 18.7627 5.488 18.288C4.396 17.8127 3.446 17.1707 2.638 16.362C1.82933 15.554 1.18733 14.604 0.712 13.512C0.237333 12.4207 0 11.25 0 10C0 8.95 0.171 7.946 0.513 6.988C0.854333 6.02933 1.33333 5.16667 1.95 4.4C2.13333 4.16667 2.36667 4.054 2.65 4.062C2.93333 4.07067 3.18333 4.18333 3.4 4.4C3.58333 4.58333 3.66667 4.80833 3.65 5.075C3.63333 5.34167 3.54167 5.59167 3.375 5.825C2.94167 6.40833 2.60433 7.054 2.363 7.762C2.121 8.47067 2 9.21667 2 10C2 11.95 2.67933 13.604 4.038 14.962C5.396 16.3207 7.05 17 9 17C10.95 17 12.604 16.3207 13.962 14.962C15.3207 13.604 16 11.95 16 10C16 9.21667 15.8793 8.46233 15.638 7.737C15.396 7.01233 15.05 6.35833 14.6 5.775C14.4333 5.55833 14.3417 5.32067 14.325 5.062C14.3083 4.804 14.3917 4.58333 14.575 4.4C14.775 4.2 15.0167 4.09567 15.3 4.087C15.5833 4.079 15.8167 4.18333 16 4.4C16.6333 5.16667 17.125 6.02933 17.475 6.988C17.825 7.946 18 8.95 18 10C18 11.25 17.7627 12.4207 17.288 13.512C16.8127 14.604 16.171 15.554 15.363 16.362C14.5543 17.1707 13.6043 17.8127 12.513 18.288C11.421 18.7627 10.25 19 9 19Z" fill="#6C33E8"/>
</svg>

