<svg width="18" height="18" viewBox="0 0 18 18" fill="none" xmlns="http://www.w3.org/2000/svg">
<path d="M9 10.7034L3.03802 16.6654C2.81496 16.8885 2.53105 17 2.18631 17C1.84157 17 1.55767 16.8885 1.3346 16.6654C1.11153 16.4423 1 16.1584 1 15.8137C1 15.4689 1.11153 15.185 1.3346 14.962L7.29658 9L1.3346 3.03802C1.11153 2.81496 1 2.53105 1 2.18631C1 1.84157 1.11153 1.55767 1.3346 1.3346C1.55767 1.11153 1.84157 1 2.18631 1C2.53105 1 2.81496 1.11153 3.03802 1.3346L9 7.29658L14.962 1.3346C15.185 1.11153 15.4689 1 15.8137 1C16.1584 1 16.4423 1.11153 16.6654 1.3346C16.8885 1.55767 17 1.84157 17 2.18631C17 2.53105 16.8885 2.81496 16.6654 3.03802L10.7034 9L16.6654 14.962C16.8885 15.185 17 15.4689 17 15.8137C17 16.1584 16.8885 16.4423 16.6654 16.6654C16.4423 16.8885 16.1584 17 15.8137 17C15.4689 17 15.185 16.8885 14.962 16.6654L9 10.7034Z" fill="#6C33E8" stroke="#6C33E8" stroke-width="1.25"/>
</svg>
