<svg width="40" height="40" viewBox="0 0 40 40" fill="none" xmlns="http://www.w3.org/2000/svg">
<circle cx="20" cy="20" r="18.5" fill="current" stroke="current" stroke-width="3"/>
<path d="M19.7706 24.0526C19.3113 24.0526 18.9239 23.8886 18.6085 23.5605C18.2924 23.2325 18.1534 22.8465 18.1917 22.4026C18.2491 21.5921 18.4405 20.8877 18.7659 20.2895C19.0912 19.6912 19.6079 19.0737 20.316 18.4368C21.1007 17.7421 21.6986 17.1388 22.1096 16.6271C22.5215 16.116 22.7274 15.5325 22.7274 14.8763C22.7274 14.0851 22.4645 13.4289 21.9385 12.9079C21.4119 12.3868 20.6796 12.1263 19.7419 12.1263C19.1295 12.1263 18.6082 12.2564 18.1779 12.5165C17.7469 12.7774 17.3975 13.1009 17.1296 13.4868C16.8616 13.8728 16.5317 14.1333 16.1397 14.2684C15.747 14.4035 15.3689 14.3939 15.0052 14.2395C14.5651 14.0465 14.2638 13.7281 14.1016 13.2842C13.9385 12.8404 13.9718 12.4254 14.2015 12.0395C14.7565 11.1711 15.5028 10.4474 16.4406 9.86842C17.3784 9.28947 18.4788 9 19.7419 9C21.7514 9 23.297 9.56467 24.3786 10.694C25.4595 11.8226 26 13.1781 26 14.7605C26 15.7254 25.7945 16.5506 25.3834 17.2361C24.9715 17.9208 24.3254 18.6974 23.4451 19.5658C22.7944 20.1833 22.3351 20.6851 22.0671 21.0711C21.7992 21.457 21.6174 21.9009 21.5217 22.4026C21.4452 22.8851 21.2442 23.2807 20.9189 23.5895C20.5935 23.8982 20.2108 24.0526 19.7706 24.0526ZM19.7419 31C19.1103 31 18.5699 30.7734 18.1205 30.3203C17.6704 29.8664 17.4453 29.3211 17.4453 28.6842C17.4453 28.0474 17.6704 27.502 18.1205 27.0481C18.5699 26.595 19.1103 26.3684 19.7419 26.3684C20.3734 26.3684 20.9143 26.595 21.3644 27.0481C21.8138 27.502 22.0384 28.0474 22.0384 28.6842C22.0384 29.3211 21.8138 29.8664 21.3644 30.3203C20.9143 30.7734 20.3734 31 19.7419 31Z" fill="current"/>
<path d="M19.7706 24.0526C19.3113 24.0526 18.9239 23.8886 18.6085 23.5605C18.2924 23.2325 18.1534 22.8465 18.1917 22.4026C18.2491 21.5921 18.4405 20.8877 18.7659 20.2895C19.0912 19.6912 19.6079 19.0737 20.316 18.4368C21.1007 17.7421 21.6986 17.1388 22.1096 16.6271C22.5215 16.116 22.7274 15.5325 22.7274 14.8763C22.7274 14.0851 22.4645 13.4289 21.9385 12.9079C21.4119 12.3868 20.6796 12.1263 19.7419 12.1263C19.1295 12.1263 18.6082 12.2564 18.1779 12.5165C17.7469 12.7774 17.3975 13.1009 17.1296 13.4868C16.8616 13.8728 16.5317 14.1333 16.1397 14.2684C15.747 14.4035 15.3689 14.3939 15.0052 14.2395C14.5651 14.0465 14.2638 13.7281 14.1016 13.2842C13.9385 12.8404 13.9718 12.4254 14.2015 12.0395C14.7565 11.1711 15.5028 10.4474 16.4406 9.86842C17.3784 9.28947 18.4788 9 19.7419 9C21.7514 9 23.297 9.56467 24.3786 10.694C25.4595 11.8226 26 13.1781 26 14.7605C26 15.7254 25.7945 16.5506 25.3834 17.2361C24.9715 17.9208 24.3254 18.6974 23.4451 19.5658C22.7944 20.1833 22.3351 20.6851 22.0671 21.0711C21.7992 21.457 21.6174 21.9009 21.5217 22.4026C21.4452 22.8851 21.2442 23.2807 20.9189 23.5895C20.5935 23.8982 20.2108 24.0526 19.7706 24.0526ZM19.7419 31C19.1103 31 18.5699 30.7734 18.1205 30.3203C17.6704 29.8664 17.4453 29.3211 17.4453 28.6842C17.4453 28.0474 17.6704 27.502 18.1205 27.0481C18.5699 26.595 19.1103 26.3684 19.7419 26.3684C20.3734 26.3684 20.9143 26.595 21.3644 27.0481C21.8138 27.502 22.0384 28.0474 22.0384 28.6842C22.0384 29.3211 21.8138 29.8664 21.3644 30.3203C20.9143 30.7734 20.3734 31 19.7419 31Z" stroke="current"/>
</svg>
