<svg width="40" height="40" viewBox="0 0 40 40" fill="none" xmlns="http://www.w3.org/2000/svg">
<circle cx="20" cy="20" r="20" transform="rotate(90 20 20)" fill="current"/>
<path d="M20.921 29.2976V14.0052L27.6417 20.6862C28.1788 21.2201 29.0602 21.2201 29.5973 20.6862C29.7249 20.5595 29.8262 20.4091 29.8953 20.2435C29.9644 20.0779 30 19.9003 30 19.721C30 19.5417 29.9644 19.3642 29.8953 19.1985C29.8262 19.0329 29.7249 18.8825 29.5973 18.7558L20.5216 9.73371C20.3942 9.60679 20.2429 9.5061 20.0763 9.4374C19.9097 9.3687 19.7311 9.33333 19.5507 9.33333C19.3704 9.33333 19.1918 9.3687 19.0252 9.4374C18.8586 9.5061 18.7072 9.60679 18.5798 9.73371L9.5042 18.7558C9.3767 18.8826 9.27556 19.033 9.20656 19.1987C9.13756 19.3643 9.10204 19.5418 9.10204 19.721C9.10204 19.9003 9.13756 20.0778 9.20656 20.2434C9.27556 20.409 9.3767 20.5595 9.5042 20.6862C9.63171 20.813 9.78307 20.9135 9.94966 20.9821C10.1163 21.0507 10.2948 21.086 10.4751 21.086C10.6554 21.086 10.834 21.0507 11.0006 20.9821C11.1672 20.9135 11.3185 20.813 11.446 20.6862L18.1667 14.0052V29.2976C18.1667 30.0506 18.7864 30.6667 19.5438 30.6667C20.3013 30.6667 20.921 30.0506 20.921 29.2976Z" fill="current" stroke="current"/>
</svg>
