<svg width="28" height="28" viewBox="0 0 28 28" fill="none" xmlns="http://www.w3.org/2000/svg">
<rect x="1" y="1" width="26" height="26" rx="6" fill="current" stroke="current" stroke-width="2"/>
<path d="M20.27 11.4137L16.5493 7.73151L17.775 6.50411C18.1106 6.16804 18.5229 6 19.012 6C19.5005 6 19.9126 6.16804 20.2482 6.50411L21.4738 7.73151C21.8094 8.06758 21.9845 8.47321 21.9991 8.94838C22.0137 9.42298 21.8532 9.82831 21.5176 10.1644L20.27 11.4137ZM6.87546 22C6.62742 22 6.41964 21.9158 6.25213 21.7475C6.08404 21.5798 6 21.3717 6 21.1233V18.6466C6 18.5297 6.02189 18.4166 6.06566 18.3073C6.10943 18.1974 6.17509 18.0986 6.26264 18.011L15.2799 8.98082L19.0006 12.7068L9.98336 21.737C9.89581 21.8247 9.79747 21.8904 9.68833 21.9342C9.5786 21.9781 9.46537 22 9.34865 22H6.87546Z" fill="current"/>
</svg>
