<svg width="current" height="current" viewBox="0 0 16 16" fill="none" xmlns="http://www.w3.org/2000/svg">
<rect x="0.5" y="0.5" width="15" height="15" rx="2.7" fill="current" stroke="current"/>
<path d="M8 12C7.8381 12 7.70248 11.9451 7.59314 11.8354C7.48343 11.7261 7.42857 11.5905 7.42857 11.4286V8.57143H4.57143C4.40952 8.57143 4.27371 8.51657 4.164 8.40686C4.05467 8.29752 4 8.1619 4 8C4 7.8381 4.05467 7.70229 4.164 7.59257C4.27371 7.48324 4.40952 7.42857 4.57143 7.42857H7.42857V4.57143C7.42857 4.40952 7.48343 4.27371 7.59314 4.164C7.70248 4.05467 7.8381 4 8 4C8.1619 4 8.29771 4.05467 8.40743 4.164C8.51676 4.27371 8.57143 4.40952 8.57143 4.57143V7.42857H11.4286C11.5905 7.42857 11.7261 7.48324 11.8354 7.59257C11.9451 7.70229 12 7.8381 12 8C12 8.1619 11.9451 8.29752 11.8354 8.40686C11.7261 8.51657 11.5905 8.57143 11.4286 8.57143H8.57143V11.4286C8.57143 11.5905 8.51676 11.7261 8.40743 11.8354C8.29771 11.9451 8.1619 12 8 12Z" fill="current" stroke="current" stroke-width="0.4"/>
</svg>
